<svg width="200" height="33" viewBox="0 0 200 33" fill="none" xmlns="http://www.w3.org/2000/svg">
<path d="M7.79297 15.1758C5.44922 15.1758 3.71875 14.5664 2.60156 13.3477C1.49219 12.1289 0.9375 10.2344 0.9375 7.66406C0.9375 2.71875 3.25781 0.246094 7.89844 0.246094C8.53125 0.246094 9.19531 0.308594 9.89062 0.433594C10.5938 0.558594 11.1797 0.734375 11.6484 0.960938C12.1172 1.17969 12.3516 1.42578 12.3516 1.69922C12.3516 1.89453 12.2734 2.15234 12.1172 2.47266C11.9609 2.78516 11.7773 3.0625 11.5664 3.30469C11.3555 3.54688 11.168 3.66797 11.0039 3.66797C10.957 3.66797 10.8438 3.62891 10.6641 3.55078C10.2734 3.39453 9.86328 3.26562 9.43359 3.16406C9.00391 3.05469 8.47266 3 7.83984 3C6.61328 3 5.70312 3.39062 5.10938 4.17188C4.52344 4.94531 4.23047 6.11719 4.23047 7.6875C4.23047 9.25781 4.52734 10.4414 5.12109 11.2383C5.71484 12.0352 6.60547 12.4336 7.79297 12.4336C8.39453 12.4336 8.9375 12.3828 9.42188 12.2812V9.64453H7.58203C7.36328 9.64453 7.20312 9.5625 7.10156 9.39844C7.00781 9.23438 6.96094 8.96875 6.96094 8.60156V7.93359C6.96094 7.57422 7.00781 7.3125 7.10156 7.14844C7.20312 6.98438 7.36328 6.90234 7.58203 6.90234H11.8125C12.1094 6.90234 12.3242 6.96875 12.457 7.10156C12.5898 7.22656 12.6562 7.43359 12.6562 7.72266V13.5234C12.6562 14.1484 12.1328 14.582 11.0859 14.8242C10.0391 15.0586 8.94141 15.1758 7.79297 15.1758ZM21.6328 15.1758C20.2109 15.1758 19 14.8867 18 14.3086C17.0078 13.7305 16.25 12.8867 15.7266 11.7773C15.2109 10.6602 14.9531 9.30078 14.9531 7.69922C14.9531 6.10547 15.2109 4.75391 15.7266 3.64453C16.25 2.52734 17.0078 1.68359 18 1.11328C19 0.535156 20.2109 0.246094 21.6328 0.246094C23.0625 0.246094 24.2734 0.535156 25.2656 1.11328C26.2656 1.68359 27.0234 2.52734 27.5391 3.64453C28.0547 4.75391 28.3125 6.10547 28.3125 7.69922C28.3125 9.30078 28.0547 10.6602 27.5391 11.7773C27.0234 12.8867 26.2656 13.7305 25.2656 14.3086C24.2734 14.8867 23.0625 15.1758 21.6328 15.1758ZM21.6328 12.4336C22.75 12.4336 23.5938 12.0312 24.1641 11.2266C24.7344 10.4141 25.0195 9.23828 25.0195 7.69922C25.0195 6.16016 24.7344 4.99219 24.1641 4.19531C23.5938 3.39844 22.75 3 21.6328 3C20.5234 3 19.6797 3.40234 19.1016 4.20703C18.5312 5.00391 18.2461 6.16797 18.2461 7.69922C18.2461 9.23828 18.5352 10.4141 19.1133 11.2266C19.6914 12.0312 20.5312 12.4336 21.6328 12.4336ZM31.5234 15C31.2344 15 31.0234 14.9336 30.8906 14.8008C30.7578 14.668 30.6914 14.457 30.6914 14.168V1.04297C30.6914 0.816406 30.793 0.648438 30.9961 0.539062C31.1992 0.421875 31.5156 0.363281 31.9453 0.363281H32.6484C33.0781 0.363281 33.3945 0.421875 33.5977 0.539062C33.8008 0.648438 33.9023 0.816406 33.9023 1.04297V12.2695H38.543C38.7617 12.2695 38.918 12.3516 39.0117 12.5156C39.1133 12.6797 39.1641 12.9414 39.1641 13.3008V13.957C39.1641 14.3242 39.1133 14.5898 39.0117 14.7539C38.918 14.918 38.7617 15 38.543 15H31.5234ZM41.6016 15C41.3125 15 41.1016 14.9336 40.9688 14.8008C40.8359 14.668 40.7695 14.457 40.7695 14.168V1.24219C40.7695 0.953125 40.8359 0.746094 40.9688 0.621094C41.1016 0.488281 41.3125 0.421875 41.6016 0.421875H46.2656C47.6953 0.421875 48.9062 0.703125 49.8984 1.26562C50.8984 1.82031 51.6523 2.64062 52.1602 3.72656C52.6758 4.8125 52.9336 6.13672 52.9336 7.69922C52.9336 9.26953 52.6758 10.5977 52.1602 11.6836C51.6523 12.7695 50.8984 13.5938 49.8984 14.1562C48.9062 14.7188 47.6953 15 46.2656 15H41.6016ZM46.2656 12.2695C47.375 12.2695 48.2148 11.8828 48.7852 11.1094C49.3555 10.3281 49.6406 9.19141 49.6406 7.69922C49.6406 6.21484 49.3555 5.08594 48.7852 4.3125C48.2148 3.53125 47.375 3.14062 46.2656 3.14062H44.0039V12.2695H46.2656ZM56.5078 15.0352C55.6719 15.0352 55.2539 14.8164 55.2539 14.3789V1.24219C55.2539 0.953125 55.3203 0.746094 55.4531 0.621094C55.5859 0.488281 55.7969 0.421875 56.0859 0.421875H60.4688C61.7656 0.421875 62.9141 0.738281 63.9141 1.37109C64.9141 2.00391 65.4141 3.20703 65.4141 4.98047C65.4141 6.19922 65.125 7.14844 64.5469 7.82812C63.9688 8.5 63.3164 8.95312 62.5898 9.1875C61.8711 9.42188 61.2305 9.53906 60.668 9.53906H58.4648V14.3789C58.4648 14.8164 58.0469 15.0352 57.2109 15.0352H56.5078ZM60.3164 6.78516C60.8164 6.78516 61.2422 6.65234 61.5938 6.38672C61.9531 6.12109 62.1328 5.65234 62.1328 4.98047C62.1328 4.30078 61.9531 3.82422 61.5938 3.55078C61.2344 3.27734 60.8086 3.14062 60.3164 3.14062H58.4648V6.78516H60.3164ZM67.9688 15C67.6797 15 67.4688 14.9336 67.3359 14.8008C67.2031 14.668 67.1367 14.457 67.1367 14.168V1.24219C67.1367 0.953125 67.2031 0.746094 67.3359 0.621094C67.4688 0.488281 67.6797 0.421875 67.9688 0.421875H75.5977C75.8164 0.421875 75.9727 0.503906 76.0664 0.667969C76.168 0.832031 76.2188 1.09766 76.2188 1.46484V2.09766C76.2188 2.46484 76.168 2.73047 76.0664 2.89453C75.9727 3.05859 75.8164 3.14062 75.5977 3.14062H70.3477V6.16406H75.0352C75.2539 6.16406 75.4102 6.24609 75.5039 6.41016C75.6055 6.57422 75.6562 6.83984 75.6562 7.20703V7.85156C75.6562 8.21875 75.6055 8.48438 75.5039 8.64844C75.4102 8.8125 75.2539 8.89453 75.0352 8.89453H70.3477V12.2695H75.6094C75.8281 12.2695 75.9844 12.3516 76.0781 12.5156C76.1797 12.6797 76.2305 12.9414 76.2305 13.3008V13.957C76.2305 14.3242 76.1797 14.5898 76.0781 14.7539C75.9844 14.918 75.8281 15 75.6094 15H67.9688ZM78.3633 15.0352C77.5117 15.0352 77.0859 14.8828 77.0859 14.5781C77.0859 14.4922 77.1133 14.3672 77.168 14.2031L81.7617 0.808594C81.8711 0.511719 82.2656 0.363281 82.9453 0.363281H84.0234C84.7031 0.363281 85.0977 0.511719 85.207 0.808594L89.8008 14.2031C89.8398 14.3594 89.8594 14.4844 89.8594 14.5781C89.8594 14.7344 89.7734 14.8516 89.6016 14.9297C89.4375 15 89.1758 15.0352 88.8164 15.0352H87.9023C87.5742 15.0352 87.3086 15.0039 87.1055 14.9414C86.9102 14.8711 86.7891 14.7578 86.7422 14.6016L85.8984 12.0586H80.9883L80.1445 14.6016C80.0586 14.8906 79.7383 15.0352 79.1836 15.0352H78.3633ZM85.0078 9.30469L83.8242 5.60156C83.7539 5.41406 83.6914 5.19922 83.6367 4.95703C83.5898 4.71484 83.5469 4.48438 83.5078 4.26562H83.4258L83.3789 4.52344C83.3008 4.98438 83.2109 5.34375 83.1094 5.60156L81.8789 9.30469H85.0078ZM97.6523 15.1758C95.3086 15.1758 93.5781 14.5664 92.4609 13.3477C91.3516 12.1289 90.7969 10.2344 90.7969 7.66406C90.7969 2.71875 93.1172 0.246094 97.7578 0.246094C98.3906 0.246094 99.0469 0.308594 99.7266 0.433594C100.406 0.558594 100.973 0.734375 101.426 0.960938C101.887 1.17969 102.117 1.42578 102.117 1.69922C102.117 1.89453 102.039 2.15234 101.883 2.47266C101.727 2.78516 101.539 3.0625 101.32 3.30469C101.109 3.54688 100.922 3.66797 100.758 3.66797C100.719 3.66797 100.613 3.62891 100.441 3.55078C100.066 3.39453 99.6719 3.26562 99.2578 3.16406C98.8516 3.05469 98.332 3 97.6992 3C96.4727 3 95.5625 3.39062 94.9688 4.17188C94.3828 4.94531 94.0898 6.11719 94.0898 7.6875C94.0898 9.25781 94.3867 10.4414 94.9805 11.2383C95.5742 12.0352 96.4648 12.4336 97.6523 12.4336C98.2695 12.4336 98.8047 12.3711 99.2578 12.2461C99.7188 12.1211 100.168 11.9609 100.605 11.7656C100.629 11.7578 100.699 11.7305 100.816 11.6836C100.934 11.6289 101.02 11.6016 101.074 11.6016C101.277 11.6016 101.473 11.7227 101.66 11.9648C101.848 12.1992 102 12.4688 102.117 12.7734C102.234 13.0703 102.293 13.2852 102.293 13.418C102.293 13.8008 102.035 14.125 101.52 14.3906C101.012 14.6562 100.395 14.8555 99.668 14.9883C98.9492 15.1133 98.2773 15.1758 97.6523 15.1758ZM105.773 15.0352C104.945 15.0352 104.531 14.8164 104.531 14.3789V1.04297C104.531 0.816406 104.629 0.648438 104.824 0.539062C105.027 0.421875 105.344 0.363281 105.773 0.363281H106.512C106.941 0.363281 107.254 0.421875 107.449 0.539062C107.652 0.648438 107.754 0.816406 107.754 1.04297V6.1875H113.379V1.04297C113.379 0.816406 113.48 0.648438 113.684 0.539062C113.887 0.421875 114.203 0.363281 114.633 0.363281H115.359C116.195 0.363281 116.613 0.589844 116.613 1.04297V14.3789C116.613 14.8164 116.195 15.0352 115.359 15.0352H114.633C113.797 15.0352 113.379 14.8164 113.379 14.3789V8.94141H107.754V14.3789C107.754 14.8164 107.34 15.0352 106.512 15.0352H105.773ZM125.953 15.1172C123.672 15.1172 121.984 14.5156 120.891 13.3125C119.797 12.1094 119.25 10.2383 119.25 7.69922C119.25 2.75391 121.496 0.28125 125.988 0.28125C126.645 0.28125 127.281 0.351562 127.898 0.492188C128.516 0.625 129.016 0.792969 129.398 0.996094C129.781 1.19922 129.973 1.39453 129.973 1.58203C129.973 1.69922 129.93 1.85547 129.844 2.05078C129.766 2.24609 129.672 2.41797 129.562 2.56641C129.453 2.71484 129.355 2.78906 129.27 2.78906C129.23 2.78906 129.121 2.73828 128.941 2.63672C128.535 2.41797 128.109 2.23438 127.664 2.08594C127.219 1.9375 126.676 1.86328 126.035 1.86328C124.355 1.86328 123.117 2.33203 122.32 3.26953C121.531 4.19922 121.137 5.68359 121.137 7.72266C121.137 9.71484 121.527 11.1836 122.309 12.1289C123.098 13.0664 124.312 13.5352 125.953 13.5352C126.641 13.5352 127.23 13.4531 127.723 13.2891C128.215 13.125 128.688 12.9219 129.141 12.6797C129.359 12.5625 129.492 12.5039 129.539 12.5039C129.625 12.5039 129.723 12.5781 129.832 12.7266C129.949 12.875 130.051 13.043 130.137 13.2305C130.223 13.4102 130.266 13.5391 130.266 13.6172C130.266 13.8125 130.066 14.0312 129.668 14.2734C129.277 14.5078 128.75 14.707 128.086 14.8711C127.43 15.0352 126.719 15.1172 125.953 15.1172ZM138.574 15.1172C136.488 15.1172 134.898 14.4844 133.805 13.2188C132.711 11.9531 132.164 10.1016 132.164 7.66406C132.164 5.23438 132.707 3.39844 133.793 2.15625C134.887 0.90625 136.48 0.28125 138.574 0.28125C140.676 0.28125 142.273 0.90625 143.367 2.15625C144.461 3.39844 145.008 5.23438 145.008 7.66406C145.008 10.1016 144.461 11.9531 143.367 13.2188C142.273 14.4844 140.676 15.1172 138.574 15.1172ZM138.574 13.5352C140.043 13.5352 141.168 13.0352 141.949 12.0352C142.73 11.0273 143.121 9.57031 143.121 7.66406C143.121 5.75781 142.73 4.31641 141.949 3.33984C141.176 2.35547 140.051 1.86328 138.574 1.86328C137.105 1.86328 135.984 2.35547 135.211 3.33984C134.438 4.31641 134.051 5.75781 134.051 7.66406C134.051 9.57812 134.438 11.0352 135.211 12.0352C135.984 13.0352 137.105 13.5352 138.574 13.5352ZM153.621 15.1172C152.41 15.1172 151.379 14.9297 150.527 14.5547C149.676 14.1719 149.031 13.6211 148.594 12.9023C148.156 12.1836 147.938 11.3242 147.938 10.3242V0.832031C147.938 0.519531 148.215 0.363281 148.77 0.363281H148.934C149.488 0.363281 149.766 0.519531 149.766 0.832031V10.3945C149.766 11.0039 149.934 11.5469 150.27 12.0234C150.605 12.5 151.066 12.8711 151.652 13.1367C152.238 13.4023 152.895 13.5352 153.621 13.5352C154.355 13.5352 155.016 13.4023 155.602 13.1367C156.188 12.8633 156.645 12.4883 156.973 12.0117C157.309 11.5352 157.477 10.9961 157.477 10.3945V0.832031C157.477 0.519531 157.754 0.363281 158.309 0.363281H158.484C159.031 0.363281 159.305 0.519531 159.305 0.832031V10.3242C159.305 11.3242 159.086 12.1836 158.648 12.9023C158.211 13.6211 157.566 14.1719 156.715 14.5547C155.863 14.9297 154.832 15.1172 153.621 15.1172ZM163.758 15.0352C163.461 15.0352 163.246 15 163.113 14.9297C162.98 14.8516 162.914 14.7344 162.914 14.5781V0.832031C162.914 0.519531 163.195 0.363281 163.758 0.363281H164.191C164.41 0.363281 164.582 0.394531 164.707 0.457031C164.84 0.519531 164.957 0.621094 165.059 0.761719L171.715 10.8047L172.336 11.9766V0.832031C172.336 0.519531 172.609 0.363281 173.156 0.363281H173.32C173.867 0.363281 174.141 0.519531 174.141 0.832031V14.5781C174.141 14.7344 174.074 14.8516 173.941 14.9297C173.809 15 173.602 15.0352 173.32 15.0352H172.898C172.703 15.0352 172.547 15.0117 172.43 14.9648C172.312 14.918 172.223 14.8438 172.16 14.7422L165.293 4.38281L164.73 3.30469V14.5781C164.73 14.8828 164.453 15.0352 163.898 15.0352H163.758ZM181.688 15.0352C181.398 15.0352 181.188 15 181.055 14.9297C180.922 14.8516 180.855 14.7344 180.855 14.5781V2.00391H176.848C176.699 2.00391 176.594 1.95312 176.531 1.85156C176.469 1.75 176.438 1.59375 176.438 1.38281V1.04297C176.438 0.824219 176.469 0.667969 176.531 0.574219C176.594 0.472656 176.699 0.421875 176.848 0.421875H186.621C186.77 0.421875 186.875 0.472656 186.938 0.574219C187 0.667969 187.031 0.824219 187.031 1.04297V1.38281C187.031 1.59375 187 1.75 186.938 1.85156C186.875 1.95312 186.77 2.00391 186.621 2.00391H182.695V14.5781C182.695 14.8828 182.414 15.0352 181.852 15.0352H181.688ZM193.184 15.0352C192.629 15.0352 192.352 14.8828 192.352 14.5781V7.52344L187.992 1.10156C187.883 0.953125 187.828 0.828125 187.828 0.726562C187.828 0.484375 188.148 0.363281 188.789 0.363281H189.012C189.246 0.363281 189.434 0.386719 189.574 0.433594C189.723 0.480469 189.836 0.5625 189.914 0.679688L193.336 5.80078L196.828 0.667969C196.953 0.464844 197.266 0.363281 197.766 0.363281H197.906C198.195 0.378906 198.402 0.417969 198.527 0.480469C198.66 0.535156 198.727 0.617188 198.727 0.726562C198.727 0.796875 198.668 0.921875 198.551 1.10156L194.191 7.58203V14.5781C194.191 14.8828 193.91 15.0352 193.348 15.0352H193.184Z" fill="#F5F5F5"/>
<path d="M76.8159 32.022C76.5132 32.022 76.3398 31.9536 76.2959 31.8169L73.3149 23.2476C73.2856 23.189 73.271 23.1328 73.271 23.0791C73.271 23.0107 73.3174 22.957 73.4102 22.918C73.5078 22.874 73.6494 22.8521 73.835 22.8521H73.9521C74.25 22.8521 74.4233 22.9229 74.4722 23.0645L76.8818 30.0151L77.0137 30.6963H77.0503L77.1968 30.0005L79.5991 23.0645C79.6528 22.9229 79.8286 22.8521 80.1265 22.8521H80.1997C80.5757 22.8521 80.7637 22.9277 80.7637 23.0791C80.7637 23.1279 80.749 23.189 80.7197 23.2622L77.7388 31.8169C77.6948 31.9536 77.5215 32.022 77.2188 32.022H76.8159ZM82.8291 32.022C82.4775 32.022 82.3018 31.9268 82.3018 31.7363V23.145C82.3018 22.9497 82.4775 22.8521 82.8291 22.8521H82.9316C83.2783 22.8521 83.4517 22.9497 83.4517 23.145V31.7363C83.4517 31.9268 83.2783 32.022 82.9316 32.022H82.8291ZM86.5059 32.022C86.1543 32.022 85.9785 31.9268 85.9785 31.7363V23.2769C85.9785 23.1401 86.0103 23.0425 86.0737 22.9839C86.1372 22.9204 86.2373 22.8887 86.374 22.8887H88.564C89.604 22.8887 90.3853 23.0718 90.9077 23.438C91.4351 23.8042 91.6987 24.3877 91.6987 25.1885C91.6987 25.7305 91.5669 26.187 91.3032 26.5581C91.0444 26.9243 90.6782 27.2002 90.2046 27.3857V27.437C90.4585 27.5249 90.666 27.6958 90.8271 27.9497C90.9932 28.1987 91.1763 28.5698 91.3765 29.063L92.3945 31.6338C92.4189 31.7217 92.4312 31.7827 92.4312 31.8169C92.4312 31.9536 92.248 32.022 91.8818 32.022H91.75C91.6182 32.022 91.5034 32.0049 91.4058 31.9707C91.313 31.9316 91.2544 31.8804 91.23 31.8169L90.2412 29.2607C90.1143 28.9287 89.9653 28.6699 89.7944 28.4844C89.6235 28.2988 89.4209 28.1694 89.1865 28.0962C88.9521 28.0229 88.6567 27.9863 88.3003 27.9863H87.1284V31.7363C87.1284 31.9268 86.9551 32.022 86.6084 32.022H86.5059ZM88.8423 26.9976C89.1499 26.9976 89.4307 26.9243 89.6846 26.7778C89.9434 26.6313 90.146 26.436 90.2925 26.1919C90.4438 25.9429 90.5195 25.6792 90.5195 25.4009C90.5195 24.8882 90.3633 24.5073 90.0508 24.2583C89.7383 24.0044 89.3062 23.8774 88.7544 23.8774H87.1284V26.9976H88.8423ZM97.4336 32.0732C96.125 32.0732 95.1289 31.6973 94.4453 30.9453C93.7617 30.1885 93.4199 29.0459 93.4199 27.5176C93.4199 24.373 94.8237 22.8008 97.6313 22.8008C98.0415 22.8008 98.4395 22.8447 98.8252 22.9326C99.2109 23.0156 99.5234 23.1206 99.7627 23.2476C100.002 23.3745 100.122 23.4966 100.122 23.6138C100.122 23.687 100.095 23.7847 100.041 23.9067C99.9922 24.0288 99.9336 24.1362 99.8652 24.229C99.7969 24.3218 99.7358 24.3682 99.6821 24.3682C99.6577 24.3682 99.5894 24.3364 99.4771 24.2729C99.2231 24.1362 98.957 24.0215 98.6787 23.9287C98.4004 23.8359 98.061 23.7896 97.6606 23.7896C96.5571 23.7896 95.771 24.0947 95.3022 24.7051C94.8335 25.3105 94.5991 26.209 94.5991 27.4004C94.5991 28.5234 94.8164 29.4194 95.251 30.0884C95.6904 30.7524 96.4473 31.0845 97.5215 31.0845C97.8486 31.0845 98.1636 31.0698 98.4663 31.0405C98.7739 31.0063 99.0181 30.9648 99.1987 30.916V28.2866H97.6753C97.5825 28.2866 97.5142 28.2573 97.4702 28.1987C97.4312 28.1353 97.4116 28.0352 97.4116 27.8984V27.686C97.4116 27.5493 97.4312 27.4517 97.4702 27.3931C97.5142 27.3296 97.5825 27.2979 97.6753 27.2979H99.9531C100.09 27.2979 100.19 27.3296 100.253 27.3931C100.317 27.4517 100.349 27.5493 100.349 27.686V31.1357C100.349 31.4727 100.075 31.7144 99.5283 31.8608C98.9814 32.0024 98.2832 32.0732 97.4336 32.0732ZM103.22 32.022C102.868 32.022 102.692 31.9268 102.692 31.7363V23.145C102.692 22.9497 102.868 22.8521 103.22 22.8521H103.322C103.669 22.8521 103.842 22.9497 103.842 23.145V31.7363C103.842 31.9268 103.669 32.022 103.322 32.022H103.22ZM106.809 32.022C106.623 32.022 106.489 32 106.406 31.9561C106.323 31.9072 106.281 31.834 106.281 31.7363V23.145C106.281 22.9497 106.457 22.8521 106.809 22.8521H107.08C107.216 22.8521 107.324 22.8716 107.402 22.9106C107.485 22.9497 107.558 23.0132 107.622 23.1011L111.782 29.3779L112.17 30.1104V23.145C112.17 22.9497 112.341 22.8521 112.683 22.8521H112.785C113.127 22.8521 113.298 22.9497 113.298 23.145V31.7363C113.298 31.834 113.256 31.9072 113.173 31.9561C113.09 32 112.961 32.022 112.785 32.022H112.521C112.399 32.022 112.302 32.0073 112.229 31.978C112.155 31.9487 112.099 31.9023 112.06 31.8389L107.768 25.3643L107.417 24.6904V31.7363C107.417 31.9268 107.243 32.022 106.896 32.022H106.809ZM116.257 32.022C115.905 32.022 115.729 31.9268 115.729 31.7363V23.145C115.729 22.9497 115.905 22.8521 116.257 22.8521H116.359C116.706 22.8521 116.879 22.9497 116.879 23.145V31.7363C116.879 31.9268 116.706 32.022 116.359 32.022H116.257ZM118.864 32.022C118.669 32.022 118.527 32.0049 118.439 31.9707C118.352 31.9316 118.308 31.8755 118.308 31.8022C118.308 31.7681 118.32 31.7095 118.344 31.6265L121.428 23.0645C121.477 22.9229 121.65 22.8521 121.948 22.8521H122.329C122.626 22.8521 122.8 22.9229 122.849 23.0645L125.932 31.6338C125.957 31.6875 125.969 31.7437 125.969 31.8022C125.969 31.9487 125.786 32.022 125.419 32.022H125.31C125.007 32.022 124.831 31.9536 124.782 31.8169L124.021 29.6782H120.197L119.45 31.8169C119.406 31.9536 119.233 32.022 118.93 32.022H118.864ZM123.669 28.6895L122.307 24.8149C122.268 24.7075 122.236 24.5854 122.211 24.4487C122.187 24.312 122.165 24.1802 122.146 24.0532H122.116C122.058 24.3804 121.992 24.6343 121.918 24.8149L120.556 28.6895H123.669Z" fill="#F5F5F5"/>
<line x1="132" y1="26.5" x2="200" y2="26.5" stroke="#EECC1C"/>
<line y1="26.5" x2="68" y2="26.5" stroke="#EECC1C"/>
</svg>
